<svg style="display:none" xmlns="http://www.w3.org/2000/svg" xmlns:xlink="http://www.w3.org/1999/xlink" version="1.1">
	<symbol id="search" xmlns="http://www.w3.org/2000/svg" viewBox="0 -960 960 960" fill="currentColor"><path d="M784-120 532-372q-30 24-69 38t-83 14q-109 0-184.5-75.5T120-580q0-109 75.5-184.5T380-840q109 0 184.5 75.5T640-580q0 44-14 83t-38 69l252 252-56 56ZM380-400q75 0 127.5-52.5T560-580q0-75-52.5-127.5T380-760q-75 0-127.5 52.5T200-580q0 75 52.5 127.5T380-400Z"/></symbol>
	<symbol id="shopping_bag" xmlns="http://www.w3.org/2000/svg" viewBox="0 -960 960 960" fill="currentColor"><path d="M240-80q-33 0-56.5-23.5T160-160v-480q0-33 23.5-56.5T240-720h80q0-66 47-113t113-47q66 0 113 47t47 113h80q33 0 56.5 23.5T800-640v480q0 33-23.5 56.5T720-80H240Zm0-80h480v-480h-80v80q0 17-11.5 28.5T600-520q-17 0-28.5-11.5T560-560v-80H400v80q0 17-11.5 28.5T360-520q-17 0-28.5-11.5T320-560v-80h-80v480Zm160-560h160q0-33-23.5-56.5T480-800q-33 0-56.5 23.5T400-720ZM240-160v-480 480Z"/></symbol>
	<symbol id="menu" xmlns="http://www.w3.org/2000/svg" viewBox="0 -960 960 960" fill="currentColor"><path d="M120-240v-80h720v80H120Zm0-200v-80h720v80H120Zm0-200v-80h720v80H120Z"/></symbol>
	<symbol id="account_circle" xmlns="http://www.w3.org/2000/svg" viewBox="0 -960 960 960" fill="currentColor"><path d="M234-276q51-39 114-61.5T480-360q69 0 132 22.5T726-276q35-41 54.5-93T800-480q0-133-93.5-226.5T480-800q-133 0-226.5 93.5T160-480q0 59 19.5 111t54.5 93Zm246-164q-59 0-99.5-40.5T340-580q0-59 40.5-99.5T480-720q59 0 99.5 40.5T620-580q0 59-40.5 99.5T480-440Zm0 360q-83 0-156-31.5T197-197q-54-54-85.5-127T80-480q0-83 31.5-156T197-763q54-54 127-85.5T480-880q83 0 156 31.5T763-763q54 54 85.5 127T880-480q0 83-31.5 156T763-197q-54 54-127 85.5T480-80Zm0-80q53 0 100-15.5t86-44.5q-39-29-86-44.5T480-280q-53 0-100 15.5T294-220q39 29 86 44.5T480-160Zm0-360q26 0 43-17t17-43q0-26-17-43t-43-17q-26 0-43 17t-17 43q0 26 17 43t43 17Zm0-60Zm0 360Z"/></symbol>
	<symbol id="close" xmlns="http://www.w3.org/2000/svg" viewBox="0 -960 960 960" fill="currentColor"><path d="m256-200-56-56 224-224-224-224 56-56 224 224 224-224 56 56-224 224 224 224-56 56-224-224-224 224Z"/></symbol>
	<symbol id="chevron-right" xmlns="http://www.w3.org/2000/svg" viewBox="0 -960 960 960" fill="currentColor"><path d="M504-480 320-664l56-56 240 240-240 240-56-56 184-184Z"/></symbol>
	<symbol id="favorite" xmlns="http://www.w3.org/2000/svg" viewBox="0 -960 960 960" fill="currentColor"><path d="m480-120-58-52q-101-91-167-157T150-447.5Q111-500 95.5-544T80-634q0-94 63-157t157-63q52 0 99 22t81 62q34-40 81-62t99-22q94 0 157 63t63 157q0 46-15.5 90T810-447.5Q771-395 705-329T538-172l-58 52Zm0-108q96-86 158-147.5t98-107q36-45.5 50-81t14-70.5q0-60-40-100t-100-40q-47 0-87 26.5T518-680h-76q-15-41-55-67.5T300-774q-60 0-100 40t-40 100q0 35 14 70.5t50 81q36 45.5 98 107T480-228Zm0-273Z"/></symbol>
	<symbol id="home_pin" xmlns="http://www.w3.org/2000/svg" viewBox="0 -960 960 960" fill="currentColor"><path d="M360-440h80v-110h80v110h80v-190l-120-80-120 80v190Zm120 254q122-112 181-203.5T720-552q0-109-69.5-178.5T480-800q-101 0-170.5 69.5T240-552q0 71 59 162.5T480-186Zm0 106Q319-217 239.5-334.5T160-552q0-150 96.5-239T480-880q127 0 223.5 89T800-552q0 100-79.5 217.5T480-80Zm0-480Z"/></symbol>
	<symbol id="call" xmlns="http://www.w3.org/2000/svg" viewBox="0 -960 960 960" fill="currentColor"><path d="M798-120q-125 0-247-54.5T329-329Q229-429 174.5-551T120-798q0-18 12-30t30-12h162q14 0 25 9.5t13 22.5l26 140q2 16-1 27t-11 19l-97 98q20 37 47.5 71.5T387-386q31 31 65 57.5t72 48.5l94-94q9-9 23.5-13.5T670-390l138 28q14 4 23 14.5t9 23.5v162q0 18-12 30t-30 12ZM241-600l66-66-17-94h-89q5 41 14 81t26 79Zm358 358q39 17 79.5 27t81.5 13v-88l-94-19-67 67ZM241-600Zm358 358Z"/></symbol>
	<symbol id="local_shipping" xmlns="http://www.w3.org/2000/svg" viewBox="0 -960 960 960" fill="currentColor"><path d="M240-160q-50 0-85-35t-35-85H40v-440q0-33 23.5-56.5T120-800h560v160h120l120 160v200h-80q0 50-35 85t-85 35q-50 0-85-35t-35-85H360q0 50-35 85t-85 35Zm0-80q17 0 28.5-11.5T280-280q0-17-11.5-28.5T240-320q-17 0-28.5 11.5T200-280q0 17 11.5 28.5T240-240ZM120-360h32q17-18 39-29t49-11q27 0 49 11t39 29h272v-360H120v360Zm600 120q17 0 28.5-11.5T760-280q0-17-11.5-28.5T720-320q-17 0-28.5 11.5T680-280q0 17 11.5 28.5T720-240Zm-40-200h170l-90-120h-80v120ZM360-540Z"/></symbol>
	<symbol id="pan_zoom" xmlns="http://www.w3.org/2000/svg" viewBox="0 -960 960 960" fill="currentColor"><path d="M120-120v-240h80v104l124-124 56 56-124 124h104v80H120Zm516-460-56-56 124-124H600v-80h240v240h-80v-104L636-580Z"/></symbol>
	<symbol id="share" xmlns="http://www.w3.org/2000/svg" viewBox="0 -960 960 960" fill="currentColor"><path d="M720-80q-50 0-85-35t-35-85q0-7 1-14.5t3-13.5L322-392q-17 15-38 23.5t-44 8.5q-50 0-85-35t-35-85q0-50 35-85t85-35q23 0 44 8.5t38 23.5l282-164q-2-6-3-13.5t-1-14.5q0-50 35-85t85-35q50 0 85 35t35 85q0 50-35 85t-85 35q-23 0-44-8.5T638-672L356-508q2 6 3 13.5t1 14.5q0 7-1 14.5t-3 13.5l282 164q17-15 38-23.5t44-8.5q50 0 85 35t35 85q0 50-35 85t-85 35Zm0-640q17 0 28.5-11.5T760-760q0-17-11.5-28.5T720-800q-17 0-28.5 11.5T680-760q0 17 11.5 28.5T720-720ZM240-440q17 0 28.5-11.5T280-480q0-17-11.5-28.5T240-520q-17 0-28.5 11.5T200-480q0 17 11.5 28.5T240-440Zm480 280q17 0 28.5-11.5T760-200q0-17-11.5-28.5T720-240q-17 0-28.5 11.5T680-200q0 17 11.5 28.5T720-160Zm0-600ZM240-480Zm480 280Z"/></symbol>
	<symbol id="sell" xmlns="http://www.w3.org/2000/svg" viewBox="0 -960 960 960" fill="currentColor"><path d="M856-390 570-104q-12 12-27 18t-30 6q-15 0-30-6t-27-18L103-457q-11-11-17-25.5T80-513v-287q0-33 23.5-56.5T160-880h287q16 0 31 6.5t26 17.5l352 353q12 12 17.5 27t5.5 30q0 15-5.5 29.5T856-390ZM513-160l286-286-353-354H160v286l353 354ZM260-640q25 0 42.5-17.5T320-700q0-25-17.5-42.5T260-760q-25 0-42.5 17.5T200-700q0 25 17.5 42.5T260-640Zm220 160Z"/></symbol>
	<symbol id="check-circle" xmlns="http://www.w3.org/2000/svg" viewBox="0 -960 960 960" fill="currentColor"><path d="m424-296 282-282-56-56-226 226-114-114-56 56 170 170Zm56 216q-83 0-156-31.5T197-197q-54-54-85.5-127T80-480q0-83 31.5-156T197-763q54-54 127-85.5T480-880q83 0 156 31.5T763-763q54 54 85.5 127T880-480q0 83-31.5 156T763-197q-54 54-127 85.5T480-80Zm0-80q134 0 227-93t93-227q0-134-93-227t-227-93q-134 0-227 93t-93 227q0 134 93 227t227 93Zm0-320Z"/></symbol>
	<symbol id="error" xmlns="http://www.w3.org/2000/svg" viewBox="0 -960 960 960" fill="currentColor"><path d="M480-280q17 0 28.5-11.5T520-320q0-17-11.5-28.5T480-360q-17 0-28.5 11.5T440-320q0 17 11.5 28.5T480-280Zm-40-160h80v-240h-80v240Zm40 360q-83 0-156-31.5T197-197q-54-54-85.5-127T80-480q0-83 31.5-156T197-763q54-54 127-85.5T480-880q83 0 156 31.5T763-763q54 54 85.5 127T880-480q0 83-31.5 156T763-197q-54 54-127 85.5T480-80Zm0-80q134 0 227-93t93-227q0-134-93-227t-227-93q-134 0-227 93t-93 227q0 134 93 227t227 93Zm0-320Z"/></symbol>
	<symbol id="trash" xmlns="http://www.w3.org/2000/svg" viewBox="0 -960 960 960" fill="currentColor"><path d="M280-120q-33 0-56.5-23.5T200-200v-520h-40v-80h200v-40h240v40h200v80h-40v520q0 33-23.5 56.5T680-120H280Zm400-600H280v520h400v-520ZM360-280h80v-360h-80v360Zm160 0h80v-360h-80v360ZM280-720v520-520Z"/></symbol>
	<symbol id="hamburger" version="1.1" xmlns="http://www.w3.org/2000/svg" xmlns:xlink="http://www.w3.org/1999/xlink" x="0px" y="0px" width="29px" height="19px" viewBox="0 0 29 19" enable-background="new 0 0 29 19" xml:space="preserve">
		<rect x="2" y="2" width="25" height="1"></rect>
		<rect x="7" y="9" width="20" height="1"></rect>
		<rect x="12" y="16" width="15" height="1"></rect>
	</symbol>

	<symbol xmlns="http://www.w3.org/2000/svg" x="0px" y="0px" id="WhatsApp" viewBox="0,0,256,256">
       <g fill="currentColor" fill-rule="nonzero" stroke="none" stroke-width="1" stroke-linecap="butt" stroke-linejoin="miter" stroke-miterlimit="10" stroke-dasharray="" stroke-dashoffset="0" font-family="none" font-weight="none" font-size="none" text-anchor="none" style="mix-blend-mode: normal"><g transform="scale(5.12,5.12)"><path d="M25,2c-12.69047,0 -23,10.30953 -23,23c0,4.0791 1.11869,7.88588 2.98438,11.20898l-2.94727,10.52148c-0.09582,0.34262 -0.00241,0.71035 0.24531,0.96571c0.24772,0.25536 0.61244,0.35989 0.95781,0.27452l10.9707,-2.71875c3.22369,1.72098 6.88165,2.74805 10.78906,2.74805c12.69047,0 23,-10.30953 23,-23c0,-12.69047 -10.30953,-23 -23,-23zM25,4c11.60953,0 21,9.39047 21,21c0,11.60953 -9.39047,21 -21,21c-3.72198,0 -7.20788,-0.97037 -10.23828,-2.66602c-0.22164,-0.12385 -0.48208,-0.15876 -0.72852,-0.09766l-9.60742,2.38086l2.57617,-9.19141c0.07449,-0.26248 0.03851,-0.54399 -0.09961,-0.7793c-1.84166,-3.12289 -2.90234,-6.75638 -2.90234,-10.64648c0,-11.60953 9.39047,-21 21,-21zM16.64258,13c-0.64104,0 -1.55653,0.23849 -2.30859,1.04883c-0.45172,0.48672 -2.33398,2.32068 -2.33398,5.54492c0,3.36152 2.33139,6.2621 2.61328,6.63477h0.00195v0.00195c-0.02674,-0.03514 0.3578,0.52172 0.87109,1.18945c0.5133,0.66773 1.23108,1.54472 2.13281,2.49414c1.80347,1.89885 4.33914,4.09336 7.48633,5.43555c1.44932,0.61717 2.59271,0.98981 3.45898,1.26172c1.60539,0.5041 3.06762,0.42747 4.16602,0.26563c0.82216,-0.12108 1.72641,-0.51584 2.62109,-1.08203c0.89469,-0.56619 1.77153,-1.2702 2.1582,-2.33984c0.27701,-0.76683 0.41783,-1.47548 0.46875,-2.05859c0.02546,-0.29156 0.02869,-0.54888 0.00977,-0.78711c-0.01897,-0.23823 0.0013,-0.42071 -0.2207,-0.78516c-0.46557,-0.76441 -0.99283,-0.78437 -1.54297,-1.05664c-0.30567,-0.15128 -1.17595,-0.57625 -2.04883,-0.99219c-0.8719,-0.41547 -1.62686,-0.78344 -2.0918,-0.94922c-0.29375,-0.10568 -0.65243,-0.25782 -1.16992,-0.19922c-0.51749,0.0586 -1.0286,0.43198 -1.32617,0.87305c-0.28205,0.41807 -1.4175,1.75835 -1.76367,2.15234c-0.0046,-0.0028 0.02544,0.01104 -0.11133,-0.05664c-0.42813,-0.21189 -0.95173,-0.39205 -1.72656,-0.80078c-0.77483,-0.40873 -1.74407,-1.01229 -2.80469,-1.94727v-0.00195c-1.57861,-1.38975 -2.68437,-3.1346 -3.0332,-3.7207c0.0235,-0.02796 -0.00279,0.0059 0.04687,-0.04297l0.00195,-0.00195c0.35652,-0.35115 0.67247,-0.77056 0.93945,-1.07812c0.37854,-0.43609 0.54559,-0.82052 0.72656,-1.17969c0.36067,-0.71583 0.15985,-1.50352 -0.04883,-1.91797v-0.00195c0.01441,0.02867 -0.11288,-0.25219 -0.25,-0.57617c-0.13751,-0.32491 -0.31279,-0.74613 -0.5,-1.19531c-0.37442,-0.89836 -0.79243,-1.90595 -1.04102,-2.49609v-0.00195c-0.29285,-0.69513 -0.68904,-1.1959 -1.20703,-1.4375c-0.51799,-0.2416 -0.97563,-0.17291 -0.99414,-0.17383h-0.00195c-0.36964,-0.01705 -0.77527,-0.02148 -1.17773,-0.02148zM16.64258,15c0.38554,0 0.76564,0.0047 1.08398,0.01953c0.32749,0.01632 0.30712,0.01766 0.24414,-0.01172c-0.06399,-0.02984 0.02283,-0.03953 0.20898,0.40234c0.24341,0.57785 0.66348,1.58909 1.03906,2.49023c0.18779,0.45057 0.36354,0.87343 0.50391,1.20508c0.14036,0.33165 0.21642,0.51683 0.30469,0.69336v0.00195l0.00195,0.00195c0.08654,0.17075 0.07889,0.06143 0.04883,0.12109c-0.21103,0.41883 -0.23966,0.52166 -0.45312,0.76758c-0.32502,0.37443 -0.65655,0.792 -0.83203,0.96484c-0.15353,0.15082 -0.43055,0.38578 -0.60352,0.8457c-0.17323,0.46063 -0.09238,1.09262 0.18555,1.56445c0.37003,0.62819 1.58941,2.6129 3.48438,4.28125c1.19338,1.05202 2.30519,1.74828 3.19336,2.2168c0.88817,0.46852 1.61157,0.74215 1.77344,0.82227c0.38438,0.19023 0.80448,0.33795 1.29297,0.2793c0.48849,-0.05865 0.90964,-0.35504 1.17773,-0.6582l0.00195,-0.00195c0.3568,-0.40451 1.41702,-1.61513 1.92578,-2.36133c0.02156,0.0076 0.0145,0.0017 0.18359,0.0625v0.00195h0.00195c0.0772,0.02749 1.04413,0.46028 1.90625,0.87109c0.86212,0.41081 1.73716,0.8378 2.02148,0.97852c0.41033,0.20308 0.60422,0.33529 0.6543,0.33594c0.00338,0.08798 0.0068,0.18333 -0.00586,0.32813c-0.03507,0.40164 -0.14243,0.95757 -0.35742,1.55273c-0.10532,0.29136 -0.65389,0.89227 -1.3457,1.33008c-0.69181,0.43781 -1.53386,0.74705 -1.8457,0.79297c-0.9376,0.13815 -2.05083,0.18859 -3.27344,-0.19531c-0.84773,-0.26609 -1.90476,-0.61053 -3.27344,-1.19336c-2.77581,-1.18381 -5.13503,-3.19825 -6.82031,-4.97266c-0.84264,-0.8872 -1.51775,-1.71309 -1.99805,-2.33789c-0.4794,-0.62364 -0.68874,-0.94816 -0.86328,-1.17773l-0.00195,-0.00195c-0.30983,-0.40973 -2.20703,-3.04868 -2.20703,-5.42578c0,-2.51576 1.1685,-3.50231 1.80078,-4.18359c0.33194,-0.35766 0.69484,-0.41016 0.8418,-0.41016z"></path></g></g>
    </symbol>

</svg>