<svg style="display:none" xmlns="http://www.w3.org/2000/svg" xmlns:xlink="http://www.w3.org/1999/xlink" version="1.1">
	<symbol id="search" xmlns="http://www.w3.org/2000/svg" viewBox="0 -960 960 960" fill="currentColor"><path d="M784-120 532-372q-30 24-69 38t-83 14q-109 0-184.5-75.5T120-580q0-109 75.5-184.5T380-840q109 0 184.5 75.5T640-580q0 44-14 83t-38 69l252 252-56 56ZM380-400q75 0 127.5-52.5T560-580q0-75-52.5-127.5T380-760q-75 0-127.5 52.5T200-580q0 75 52.5 127.5T380-400Z"/></symbol>
	<symbol id="shopping_bag" xmlns="http://www.w3.org/2000/svg" viewBox="0 -960 960 960" fill="currentColor"><path d="M240-80q-33 0-56.5-23.5T160-160v-480q0-33 23.5-56.5T240-720h80q0-66 47-113t113-47q66 0 113 47t47 113h80q33 0 56.5 23.5T800-640v480q0 33-23.5 56.5T720-80H240Zm0-80h480v-480h-80v80q0 17-11.5 28.5T600-520q-17 0-28.5-11.5T560-560v-80H400v80q0 17-11.5 28.5T360-520q-17 0-28.5-11.5T320-560v-80h-80v480Zm160-560h160q0-33-23.5-56.5T480-800q-33 0-56.5 23.5T400-720ZM240-160v-480 480Z"/></symbol>
	<symbol id="menu" xmlns="http://www.w3.org/2000/svg" viewBox="0 -960 960 960" fill="currentColor"><path d="M120-240v-80h720v80H120Zm0-200v-80h720v80H120Zm0-200v-80h720v80H120Z"/></symbol>
	<symbol id="account_circle" xmlns="http://www.w3.org/2000/svg" viewBox="0 -960 960 960" fill="currentColor"><path d="M234-276q51-39 114-61.5T480-360q69 0 132 22.5T726-276q35-41 54.5-93T800-480q0-133-93.5-226.5T480-800q-133 0-226.5 93.5T160-480q0 59 19.5 111t54.5 93Zm246-164q-59 0-99.5-40.5T340-580q0-59 40.5-99.5T480-720q59 0 99.5 40.5T620-580q0 59-40.5 99.5T480-440Zm0 360q-83 0-156-31.5T197-197q-54-54-85.5-127T80-480q0-83 31.5-156T197-763q54-54 127-85.5T480-880q83 0 156 31.5T763-763q54 54 85.5 127T880-480q0 83-31.5 156T763-197q-54 54-127 85.5T480-80Zm0-80q53 0 100-15.5t86-44.5q-39-29-86-44.5T480-280q-53 0-100 15.5T294-220q39 29 86 44.5T480-160Zm0-360q26 0 43-17t17-43q0-26-17-43t-43-17q-26 0-43 17t-17 43q0 26 17 43t43 17Zm0-60Zm0 360Z"/></symbol>
	<symbol id="close" xmlns="http://www.w3.org/2000/svg" viewBox="0 -960 960 960" fill="currentColor"><path d="m256-200-56-56 224-224-224-224 56-56 224 224 224-224 56 56-224 224 224 224-56 56-224-224-224 224Z"/></symbol>
	<symbol id="chevron-right" xmlns="http://www.w3.org/2000/svg" viewBox="0 -960 960 960" fill="currentColor"><path d="M504-480 320-664l56-56 240 240-240 240-56-56 184-184Z"/></symbol>
	<symbol id="favorite" xmlns="http://www.w3.org/2000/svg" viewBox="0 -960 960 960" fill="currentColor"><path d="m480-120-58-52q-101-91-167-157T150-447.5Q111-500 95.5-544T80-634q0-94 63-157t157-63q52 0 99 22t81 62q34-40 81-62t99-22q94 0 157 63t63 157q0 46-15.5 90T810-447.5Q771-395 705-329T538-172l-58 52Zm0-108q96-86 158-147.5t98-107q36-45.5 50-81t14-70.5q0-60-40-100t-100-40q-47 0-87 26.5T518-680h-76q-15-41-55-67.5T300-774q-60 0-100 40t-40 100q0 35 14 70.5t50 81q36 45.5 98 107T480-228Zm0-273Z"/></symbol>
	<symbol id="home_pin" xmlns="http://www.w3.org/2000/svg" viewBox="0 -960 960 960" fill="currentColor"><path d="M360-440h80v-110h80v110h80v-190l-120-80-120 80v190Zm120 254q122-112 181-203.5T720-552q0-109-69.5-178.5T480-800q-101 0-170.5 69.5T240-552q0 71 59 162.5T480-186Zm0 106Q319-217 239.5-334.5T160-552q0-150 96.5-239T480-880q127 0 223.5 89T800-552q0 100-79.5 217.5T480-80Zm0-480Z"/></symbol>
	<symbol id="call" xmlns="http://www.w3.org/2000/svg" viewBox="0 -960 960 960" fill="currentColor"><path d="M798-120q-125 0-247-54.5T329-329Q229-429 174.5-551T120-798q0-18 12-30t30-12h162q14 0 25 9.5t13 22.5l26 140q2 16-1 27t-11 19l-97 98q20 37 47.5 71.5T387-386q31 31 65 57.5t72 48.5l94-94q9-9 23.5-13.5T670-390l138 28q14 4 23 14.5t9 23.5v162q0 18-12 30t-30 12ZM241-600l66-66-17-94h-89q5 41 14 81t26 79Zm358 358q39 17 79.5 27t81.5 13v-88l-94-19-67 67ZM241-600Zm358 358Z"/></symbol>
	<symbol id="local_shipping" xmlns="http://www.w3.org/2000/svg" viewBox="0 -960 960 960" fill="currentColor"><path d="M240-160q-50 0-85-35t-35-85H40v-440q0-33 23.5-56.5T120-800h560v160h120l120 160v200h-80q0 50-35 85t-85 35q-50 0-85-35t-35-85H360q0 50-35 85t-85 35Zm0-80q17 0 28.5-11.5T280-280q0-17-11.5-28.5T240-320q-17 0-28.5 11.5T200-280q0 17 11.5 28.5T240-240ZM120-360h32q17-18 39-29t49-11q27 0 49 11t39 29h272v-360H120v360Zm600 120q17 0 28.5-11.5T760-280q0-17-11.5-28.5T720-320q-17 0-28.5 11.5T680-280q0 17 11.5 28.5T720-240Zm-40-200h170l-90-120h-80v120ZM360-540Z"/></symbol>
	<symbol id="pan_zoom" xmlns="http://www.w3.org/2000/svg" viewBox="0 -960 960 960" fill="currentColor"><path d="M120-120v-240h80v104l124-124 56 56-124 124h104v80H120Zm516-460-56-56 124-124H600v-80h240v240h-80v-104L636-580Z"/></symbol>
	<symbol id="share" xmlns="http://www.w3.org/2000/svg" viewBox="0 -960 960 960" fill="currentColor"><path d="M720-80q-50 0-85-35t-35-85q0-7 1-14.5t3-13.5L322-392q-17 15-38 23.5t-44 8.5q-50 0-85-35t-35-85q0-50 35-85t85-35q23 0 44 8.5t38 23.5l282-164q-2-6-3-13.5t-1-14.5q0-50 35-85t85-35q50 0 85 35t35 85q0 50-35 85t-85 35q-23 0-44-8.5T638-672L356-508q2 6 3 13.5t1 14.5q0 7-1 14.5t-3 13.5l282 164q17-15 38-23.5t44-8.5q50 0 85 35t35 85q0 50-35 85t-85 35Zm0-640q17 0 28.5-11.5T760-760q0-17-11.5-28.5T720-800q-17 0-28.5 11.5T680-760q0 17 11.5 28.5T720-720ZM240-440q17 0 28.5-11.5T280-480q0-17-11.5-28.5T240-520q-17 0-28.5 11.5T200-480q0 17 11.5 28.5T240-440Zm480 280q17 0 28.5-11.5T760-200q0-17-11.5-28.5T720-240q-17 0-28.5 11.5T680-200q0 17 11.5 28.5T720-160Zm0-600ZM240-480Zm480 280Z"/></symbol>
	<symbol id="sell" xmlns="http://www.w3.org/2000/svg" viewBox="0 -960 960 960" fill="currentColor"><path d="M856-390 570-104q-12 12-27 18t-30 6q-15 0-30-6t-27-18L103-457q-11-11-17-25.5T80-513v-287q0-33 23.5-56.5T160-880h287q16 0 31 6.5t26 17.5l352 353q12 12 17.5 27t5.5 30q0 15-5.5 29.5T856-390ZM513-160l286-286-353-354H160v286l353 354ZM260-640q25 0 42.5-17.5T320-700q0-25-17.5-42.5T260-760q-25 0-42.5 17.5T200-700q0 25 17.5 42.5T260-640Zm220 160Z"/></symbol>
	<symbol id="check-circle" xmlns="http://www.w3.org/2000/svg" viewBox="0 -960 960 960" fill="currentColor"><path d="m424-296 282-282-56-56-226 226-114-114-56 56 170 170Zm56 216q-83 0-156-31.5T197-197q-54-54-85.5-127T80-480q0-83 31.5-156T197-763q54-54 127-85.5T480-880q83 0 156 31.5T763-763q54 54 85.5 127T880-480q0 83-31.5 156T763-197q-54 54-127 85.5T480-80Zm0-80q134 0 227-93t93-227q0-134-93-227t-227-93q-134 0-227 93t-93 227q0 134 93 227t227 93Zm0-320Z"/></symbol>
	<symbol id="error" xmlns="http://www.w3.org/2000/svg" viewBox="0 -960 960 960" fill="currentColor"><path d="M480-280q17 0 28.5-11.5T520-320q0-17-11.5-28.5T480-360q-17 0-28.5 11.5T440-320q0 17 11.5 28.5T480-280Zm-40-160h80v-240h-80v240Zm40 360q-83 0-156-31.5T197-197q-54-54-85.5-127T80-480q0-83 31.5-156T197-763q54-54 127-85.5T480-880q83 0 156 31.5T763-763q54 54 85.5 127T880-480q0 83-31.5 156T763-197q-54 54-127 85.5T480-80Zm0-80q134 0 227-93t93-227q0-134-93-227t-227-93q-134 0-227 93t-93 227q0 134 93 227t227 93Zm0-320Z"/></symbol>
	<symbol id="trash" xmlns="http://www.w3.org/2000/svg" viewBox="0 -960 960 960" fill="currentColor"><path d="M280-120q-33 0-56.5-23.5T200-200v-520h-40v-80h200v-40h240v40h200v80h-40v520q0 33-23.5 56.5T680-120H280Zm400-600H280v520h400v-520ZM360-280h80v-360h-80v360Zm160 0h80v-360h-80v360ZM280-720v520-520Z"/></symbol>
	<symbol id="hamburger" version="1.1" xmlns="http://www.w3.org/2000/svg" xmlns:xlink="http://www.w3.org/1999/xlink" x="0px" y="0px" width="29px" height="19px" viewBox="0 0 29 19" enable-background="new 0 0 29 19" xml:space="preserve">
		<rect x="2" y="2" width="25" height="1"></rect>
		<rect x="7" y="9" width="20" height="1"></rect>
		<rect x="12" y="16" width="15" height="1"></rect>
	</symbol>

	<symbol xmlns="http://www.w3.org/2000/svg" x="0px" y="0px" id="WhatsApp" viewBox="0,0,256,256">
       <g fill="currentColor" fill-rule="nonzero" stroke="none" stroke-width="1" stroke-linecap="butt" stroke-linejoin="miter" stroke-miterlimit="10" stroke-dasharray="" stroke-dashoffset="0" font-family="none" font-weight="none" font-size="none" text-anchor="none" style="mix-blend-mode: normal"><g transform="scale(5.12,5.12)"><path d="M25,2c-12.69047,0 -23,10.30953 -23,23c0,4.0791 1.11869,7.88588 2.98438,11.20898l-2.94727,10.52148c-0.09582,0.34262 -0.00241,0.71035 0.24531,0.96571c0.24772,0.25536 0.61244,0.35989 0.95781,0.27452l10.9707,-2.71875c3.22369,1.72098 6.88165,2.74805 10.78906,2.74805c12.69047,0 23,-10.30953 23,-23c0,-12.69047 -10.30953,-23 -23,-23zM25,4c11.60953,0 21,9.39047 21,21c0,11.60953 -9.39047,21 -21,21c-3.72198,0 -7.20788,-0.97037 -10.23828,-2.66602c-0.22164,-0.12385 -0.48208,-0.15876 -0.72852,-0.09766l-9.60742,2.38086l2.57617,-9.19141c0.07449,-0.26248 0.03851,-0.54399 -0.09961,-0.7793c-1.84166,-3.12289 -2.90234,-6.75638 -2.90234,-10.64648c0,-11.60953 9.39047,-21 21,-21zM16.64258,13c-0.64104,0 -1.55653,0.23849 -2.30859,1.04883c-0.45172,0.48672 -2.33398,2.32068 -2.33398,5.54492c0,3.36152 2.33139,6.2621 2.61328,6.63477h0.00195v0.00195c-0.02674,-0.03514 0.3578,0.52172 0.87109,1.18945c0.5133,0.66773 1.23108,1.54472 2.13281,2.49414c1.80347,1.89885 4.33914,4.09336 7.48633,5.43555c1.44932,0.61717 2.59271,0.98981 3.45898,1.26172c1.60539,0.5041 3.06762,0.42747 4.16602,0.26563c0.82216,-0.12108 1.72641,-0.51584 2.62109,-1.08203c0.89469,-0.56619 1.77153,-1.2702 2.1582,-2.33984c0.27701,-0.76683 0.41783,-1.47548 0.46875,-2.05859c0.02546,-0.29156 0.02869,-0.54888 0.00977,-0.78711c-0.01897,-0.23823 0.0013,-0.42071 -0.2207,-0.78516c-0.46557,-0.76441 -0.99283,-0.78437 -1.54297,-1.05664c-0.30567,-0.15128 -1.17595,-0.57625 -2.04883,-0.99219c-0.8719,-0.41547 -1.62686,-0.78344 -2.0918,-0.94922c-0.29375,-0.10568 -0.65243,-0.25782 -1.16992,-0.19922c-0.51749,0.0586 -1.0286,0.43198 -1.32617,0.87305c-0.28205,0.41807 -1.4175,1.75835 -1.76367,2.15234c-0.0046,-0.0028 0.02544,0.01104 -0.11133,-0.05664c-0.42813,-0.21189 -0.95173,-0.39205 -1.72656,-0.80078c-0.77483,-0.40873 -1.74407,-1.01229 -2.80469,-1.94727v-0.00195c-1.57861,-1.38975 -2.68437,-3.1346 -3.0332,-3.7207c0.0235,-0.02796 -0.00279,0.0059 0.04687,-0.04297l0.00195,-0.00195c0.35652,-0.35115 0.67247,-0.77056 0.93945,-1.07812c0.37854,-0.43609 0.54559,-0.82052 0.72656,-1.17969c0.36067,-0.71583 0.15985,-1.50352 -0.04883,-1.91797v-0.00195c0.01441,0.02867 -0.11288,-0.25219 -0.25,-0.57617c-0.13751,-0.32491 -0.31279,-0.74613 -0.5,-1.19531c-0.37442,-0.89836 -0.79243,-1.90595 -1.04102,-2.49609v-0.00195c-0.29285,-0.69513 -0.68904,-1.1959 -1.20703,-1.4375c-0.51799,-0.2416 -0.97563,-0.17291 -0.99414,-0.17383h-0.00195c-0.36964,-0.01705 -0.77527,-0.02148 -1.17773,-0.02148zM16.64258,15c0.38554,0 0.76564,0.0047 1.08398,0.01953c0.32749,0.01632 0.30712,0.01766 0.24414,-0.01172c-0.06399,-0.02984 0.02283,-0.03953 0.20898,0.40234c0.24341,0.57785 0.66348,1.58909 1.03906,2.49023c0.18779,0.45057 0.36354,0.87343 0.50391,1.20508c0.14036,0.33165 0.21642,0.51683 0.30469,0.69336v0.00195l0.00195,0.00195c0.08654,0.17075 0.07889,0.06143 0.04883,0.12109c-0.21103,0.41883 -0.23966,0.52166 -0.45312,0.76758c-0.32502,0.37443 -0.65655,0.792 -0.83203,0.96484c-0.15353,0.15082 -0.43055,0.38578 -0.60352,0.8457c-0.17323,0.46063 -0.09238,1.09262 0.18555,1.56445c0.37003,0.62819 1.58941,2.6129 3.48438,4.28125c1.19338,1.05202 2.30519,1.74828 3.19336,2.2168c0.88817,0.46852 1.61157,0.74215 1.77344,0.82227c0.38438,0.19023 0.80448,0.33795 1.29297,0.2793c0.48849,-0.05865 0.90964,-0.35504 1.17773,-0.6582l0.00195,-0.00195c0.3568,-0.40451 1.41702,-1.61513 1.92578,-2.36133c0.02156,0.0076 0.0145,0.0017 0.18359,0.0625v0.00195h0.00195c0.0772,0.02749 1.04413,0.46028 1.90625,0.87109c0.86212,0.41081 1.73716,0.8378 2.02148,0.97852c0.41033,0.20308 0.60422,0.33529 0.6543,0.33594c0.00338,0.08798 0.0068,0.18333 -0.00586,0.32813c-0.03507,0.40164 -0.14243,0.95757 -0.35742,1.55273c-0.10532,0.29136 -0.65389,0.89227 -1.3457,1.33008c-0.69181,0.43781 -1.53386,0.74705 -1.8457,0.79297c-0.9376,0.13815 -2.05083,0.18859 -3.27344,-0.19531c-0.84773,-0.26609 -1.90476,-0.61053 -3.27344,-1.19336c-2.77581,-1.18381 -5.13503,-3.19825 -6.82031,-4.97266c-0.84264,-0.8872 -1.51775,-1.71309 -1.99805,-2.33789c-0.4794,-0.62364 -0.68874,-0.94816 -0.86328,-1.17773l-0.00195,-0.00195c-0.30983,-0.40973 -2.20703,-3.04868 -2.20703,-5.42578c0,-2.51576 1.1685,-3.50231 1.80078,-4.18359c0.33194,-0.35766 0.69484,-0.41016 0.8418,-0.41016z"></path></g></g>
    </symbol>

	<symbol  id="Instagram" viewBox="0 0 25 24" fill="none" xmlns="http://www.w3.org/2000/svg">
		<g clip-path="url(#clip0_2_603)">
		<path d="M12.8101 6.80702C14.5124 6.80702 14.7145 6.80702 15.3881 6.84375C15.7936 6.85118 16.195 6.92567 16.5761 7.06421C16.8536 7.16665 17.1047 7.32985 17.3109 7.54185C17.5236 7.74759 17.6869 7.99883 17.7886 8.27669C17.9271 8.65781 18.0016 9.05922 18.009 9.4647C18.009 10.1383 18.0458 10.3404 18.0458 12.0489C18.0458 13.7574 18.0458 13.9533 18.009 14.6269C18.0016 15.0324 17.9271 15.4338 17.7886 15.8149C17.6869 16.0928 17.5236 16.344 17.3109 16.5498C17.1047 16.7618 16.8536 16.925 16.5761 17.0274C16.195 17.166 15.7936 17.2404 15.3881 17.2479C14.7145 17.2785 14.5124 17.2847 12.8101 17.2847C11.1077 17.2847 10.8995 17.2847 10.2259 17.2479C9.82039 17.2404 9.41898 17.166 9.03786 17.0274C8.76189 16.922 8.51145 16.7592 8.30304 16.5498C8.0923 16.3425 7.92928 16.0917 7.82538 15.8149C7.68684 15.4338 7.61235 15.0324 7.60492 14.6269C7.60492 13.9533 7.56819 13.7512 7.56819 12.0489C7.56819 10.3465 7.56819 10.1383 7.60492 9.4647C7.61235 9.05922 7.68684 8.65781 7.82538 8.27669C7.92928 7.99992 8.0923 7.74919 8.30304 7.54185C8.51145 7.33245 8.76189 7.16965 9.03786 7.06421C9.41898 6.92567 9.82039 6.85118 10.2259 6.84375C10.8995 6.84375 11.1015 6.80702 12.8101 6.80702ZM12.8101 5.65576C11.0709 5.65576 10.8566 5.65575 10.1707 5.6925C9.64099 5.70347 9.11698 5.80496 8.62147 5.99257C8.1957 6.15388 7.80944 6.40443 7.48857 6.7274C7.16425 7.04718 6.91349 7.43377 6.75374 7.8603C6.56851 8.35654 6.4671 8.88011 6.45367 9.40958C6.42305 10.0955 6.41693 10.3098 6.41693 12.0489C6.41693 13.788 6.41692 14.0023 6.45367 14.682C6.4671 15.2116 6.56851 15.7352 6.75374 16.2314C6.91658 16.6478 7.16387 17.026 7.48004 17.3422C7.79621 17.6584 8.1744 17.9056 8.59086 18.0685C9.08636 18.2561 9.61037 18.3575 10.1401 18.3685C10.826 18.3991 11.0403 18.4052 12.7795 18.4052C14.5185 18.4052 14.7329 18.4053 15.4126 18.3685C15.9424 18.3581 16.4665 18.2567 16.9619 18.0685C17.3783 17.9056 17.7565 17.6584 18.0727 17.3422C18.3888 17.026 18.6362 16.6478 18.799 16.2314C18.9872 15.736 19.0887 15.2119 19.0991 14.682C19.1297 14.0023 19.1358 13.7819 19.1358 12.0489C19.1358 10.3159 19.1358 10.0955 19.0991 9.40958C19.0887 8.87975 18.9872 8.35566 18.799 7.8603C18.6415 7.43268 18.3904 7.04563 18.0641 6.7274C17.7444 6.40308 17.3578 6.15232 16.9313 5.99257C16.4359 5.80438 15.9118 5.70287 15.382 5.6925C14.7023 5.6925 14.4818 5.65576 12.7488 5.65576" fill="#39393A"/>
		<path d="M12.8101 8.75416C12.1607 8.75299 11.5255 8.94446 10.9849 9.30442C10.4443 9.6643 10.0227 10.1765 9.77326 10.7762C9.52391 11.3758 9.45802 12.036 9.58397 12.673C9.70992 13.3102 10.0221 13.8956 10.4809 14.3552C10.9397 14.8149 11.5245 15.1281 12.1613 15.2553C12.7982 15.3824 13.4585 15.3178 14.0586 15.0695C14.6587 14.8213 15.1718 14.4005 15.5327 13.8607C15.8936 13.3207 16.0863 12.6859 16.0863 12.0365C16.0863 11.167 15.7413 10.3331 15.1271 9.71768C14.5128 9.10233 13.6796 8.75583 12.8101 8.75416ZM12.8101 14.1614C12.3881 14.1626 11.9753 14.0385 11.6239 13.8048C11.2724 13.5711 10.9984 13.2384 10.8363 12.8487C10.6742 12.459 10.6316 12.0301 10.7136 11.6161C10.7956 11.2022 10.9987 10.8219 11.2971 10.5235C11.5955 10.2251 11.9758 10.022 12.3898 9.93998C12.8037 9.85795 13.2326 9.90064 13.6223 10.0627C14.012 10.2247 14.3447 10.4988 14.5784 10.8503C14.8121 11.2017 14.9362 11.6145 14.935 12.0365C14.935 12.3156 14.8801 12.5918 14.7733 12.8497C14.6665 13.1075 14.5099 13.3417 14.3127 13.539C14.1153 13.7363 13.8811 13.8929 13.6233 13.9996C13.3655 14.1065 13.0892 14.1614 12.8101 14.1614Z" fill="#39393A"/>
		<path d="M16.9986 8.64364C16.9986 8.7965 16.9532 8.94593 16.8681 9.07297C16.7831 9.20001 16.6622 9.29884 16.5209 9.35709C16.3795 9.41526 16.2241 9.43024 16.0743 9.39992C15.9244 9.36967 15.787 9.29557 15.6793 9.18707C15.5716 9.0785 15.4986 8.94048 15.4695 8.79039C15.4405 8.6403 15.4566 8.48497 15.5159 8.34411C15.5753 8.20326 15.6751 8.0832 15.8028 7.99914C15.9305 7.91507 16.0803 7.87086 16.2332 7.8721C16.3342 7.8721 16.4342 7.89209 16.5275 7.93093C16.6208 7.96976 16.7055 8.0267 16.7766 8.09847C16.8478 8.17017 16.904 8.25525 16.9421 8.34884C16.9802 8.44243 16.9995 8.54264 16.9986 8.64364Z" fill="#39393A"/>
		<path d="M24.0814 12.0549C24.0814 5.82983 19.035 0.783447 12.81 0.783447C6.58497 0.783447 1.53859 5.82983 1.53859 12.0549C1.53859 18.2799 6.58497 23.3263 12.81 23.3263C19.035 23.3263 24.0814 18.2799 24.0814 12.0549Z" stroke="#39393A" stroke-width="0.727188"/>
		</g>
		<defs>
		<clipPath id="clip0_2_603">
		<rect width="23.9972" height="23.27" fill="white" transform="translate(0.811401 0.419922)"/>
		</clipPath>
		</defs>
	</symbol>

	   
	<symbol id="Facebook" viewBox="0 0 25 24" fill="none" xmlns="http://www.w3.org/2000/svg">
		<g clip-path="url(#clip0_2_596)">
		<g clip-path="url(#clip1_2_596)">
		<g clip-path="url(#clip2_2_596)">
		<path d="M11.0369 19.0617H13.8677V11.9695H15.8486L16.0565 9.59115H13.8677V8.23996C13.8677 7.68355 13.9838 7.45733 14.5219 7.45733H16.0565V5.01172H14.0939C11.9907 5.01172 11.0369 5.94105 11.0369 7.72024V9.60947H9.5634V12.0184H11.0369V19.0617Z" fill="#39393A"/>
		<path d="M24.0814 12.0549C24.0814 5.82983 19.035 0.783447 12.81 0.783447C6.58497 0.783447 1.53859 5.82983 1.53859 12.0549C1.53859 18.2799 6.58497 23.3263 12.81 23.3263C19.035 23.3263 24.0814 18.2799 24.0814 12.0549Z" stroke="#39393A" stroke-width="0.727188"/>
		</g>
		</g>
		</g>
		<defs>
		<clipPath id="clip0_2_596">
		<rect width="24" height="23.27" fill="white" transform="translate(0.809998 0.419922)"/>
		</clipPath>
		<clipPath id="clip1_2_596">
		<rect width="24" height="23.27" fill="white" transform="translate(0.809998 0.419922)"/>
		</clipPath>
		<clipPath id="clip2_2_596">
		<rect width="23.9972" height="23.27" fill="white" transform="translate(0.811401 0.419922)"/>
		</clipPath>
		</defs>
	</symbol>

	<symbol id="Tiktok" viewBox="0 0 25 24" fill="none" xmlns="http://www.w3.org/2000/svg">
		<g clip-path="url(#clip0_2_613)">
		<g clip-path="url(#clip1_2_613)">
		<g clip-path="url(#clip2_2_613)">
		<path fill-rule="evenodd" clip-rule="evenodd" d="M12.81 1.53774C6.9905 1.53774 2.27287 6.25535 2.27287 12.0748C2.27287 17.8943 6.9905 22.6119 12.81 22.6119C18.6295 22.6119 23.3471 17.8943 23.3471 12.0748C23.3471 6.25535 18.6295 1.53774 12.81 1.53774ZM1.40823 12.0748C1.40823 5.77782 6.51298 0.673096 12.81 0.673096C19.107 0.673096 24.2117 5.77783 24.2117 12.0748C24.2117 18.3718 19.107 23.4766 12.81 23.4766C6.51298 23.4766 1.40823 18.3718 1.40823 12.0748Z" fill="#222221"/>
		<path d="M19.3986 10.2762H19.0176C18.3304 10.2769 17.6539 10.1054 17.0492 9.77697C16.4446 9.44857 15.931 8.9738 15.555 8.39565V14.8032C15.5584 15.7389 15.2856 16.6546 14.7712 17.4345C14.2567 18.2144 13.5237 18.8234 12.6649 19.1847C11.8061 19.5458 10.86 19.643 9.94621 19.4637C9.03252 19.2844 8.19213 18.8369 7.5315 18.1776C6.87083 17.5184 6.4195 16.6769 6.23459 15.7598C6.04968 14.8428 6.1395 13.8911 6.49266 13.0254C6.84584 12.1595 7.4465 11.4185 8.21873 10.8958C8.99091 10.3732 9.9 10.0923 10.831 10.089H11.1188V12.4205C11.0257 12.4205 10.9326 12.4205 10.831 12.4205C10.5038 12.401 10.1761 12.4489 9.86798 12.5613C9.55995 12.6737 9.27796 12.8482 9.03938 13.0742C8.80086 13.3001 8.61082 13.5727 8.4809 13.8751C8.35105 14.1776 8.284 14.5035 8.284 14.8329C8.284 15.1623 8.35105 15.4883 8.4809 15.7907C8.61082 16.0932 8.80086 16.3658 9.03938 16.5917C9.27796 16.8176 9.55995 16.9922 9.86798 17.1045C10.1761 17.217 10.5038 17.2649 10.831 17.2454C11.1535 17.2567 11.475 17.2041 11.7772 17.0905C12.0794 16.9768 12.3564 16.8045 12.5922 16.5831C12.8281 16.3619 13.0183 16.096 13.1519 15.8008C13.2855 15.5056 13.3599 15.1868 13.3708 14.8627V3.98779H15.5889C15.6881 4.95791 16.1245 5.8618 16.8213 6.54041C17.5182 7.21903 18.4308 7.62888 19.3986 7.69785V10.2932" fill="#39393A"/>
		</g>
		</g>
		</g>
		<defs>
		<clipPath id="clip0_2_613">
		<rect width="24" height="23.31" fill="white" transform="translate(0.809998 0.419922)"/>
		</clipPath>
		<clipPath id="clip1_2_613">
		<rect width="24" height="23.31" fill="white" transform="translate(0.809998 0.419922)"/>
		</clipPath>
		<clipPath id="clip2_2_613">
		<rect width="23.9956" height="23.31" fill="white" transform="translate(0.812195 0.419922)"/>
		</clipPath>
		</defs>
	</symbol>

	<symbol id="Linkedin" viewBox="0 0 32 32" fill="currentColor" xmlns="http://www.w3.org/2000/svg">
		<path fill-rule="evenodd" clip-rule="evenodd" d="M8 6.66667C7.64638 6.66667 7.30724 6.80714 7.05719 7.05719C6.80714 7.30724 6.66667 7.64638 6.66667 8V24C6.66667 24.3536 6.80714 24.6928 7.05719 24.9428C7.30724 25.1929 7.64638 25.3333 8 25.3333H24C24.3536 25.3333 24.6928 25.1929 24.9428 24.9428C25.1929 24.6928 25.3333 24.3536 25.3333 24V8C25.3333 7.64638 25.1929 7.30724 24.9428 7.05719C24.6928 6.80714 24.3536 6.66667 24 6.66667H8ZM5.17157 5.17157C5.92172 4.42143 6.93913 4 8 4H24C25.0609 4 26.0783 4.42143 26.8284 5.17157C27.5786 5.92172 28 6.93913 28 8V24C28 25.0609 27.5786 26.0783 26.8284 26.8284C26.0783 27.5786 25.0609 28 24 28H8C6.93913 28 5.92172 27.5786 5.17157 26.8284C4.42143 26.0783 4 25.0609 4 24V8C4 6.93913 4.42143 5.92172 5.17157 5.17157Z"/>
		<path fill-rule="evenodd" clip-rule="evenodd" d="M10.6667 13.3334C11.4031 13.3334 12 13.9303 12 14.6667V21.3334C12 22.0698 11.4031 22.6667 10.6667 22.6667C9.93033 22.6667 9.33337 22.0698 9.33337 21.3334V14.6667C9.33337 13.9303 9.93033 13.3334 10.6667 13.3334Z"/>
		<path fill-rule="evenodd" clip-rule="evenodd" d="M10.6667 9.33337C11.4031 9.33337 12 9.93033 12 10.6667V10.68C12 11.4164 11.4031 12.0134 10.6667 12.0134C9.93033 12.0134 9.33337 11.4164 9.33337 10.68V10.6667C9.33337 9.93033 9.93033 9.33337 10.6667 9.33337Z"/>
		<path fill-rule="evenodd" clip-rule="evenodd" d="M16 13.3334C16.7363 13.3334 17.3333 13.9303 17.3333 14.6667V21.3334C17.3333 22.0698 16.7363 22.6667 16 22.6667C15.2636 22.6667 14.6666 22.0698 14.6666 21.3334V14.6667C14.6666 13.9303 15.2636 13.3334 16 13.3334Z"/>
		<path fill-rule="evenodd" clip-rule="evenodd" d="M15.8382 14.5049C16.5883 13.7548 17.6058 13.3334 18.6666 13.3334C19.7275 13.3334 20.7449 13.7548 21.4951 14.5049C22.2452 15.2551 22.6666 16.2725 22.6666 17.3334V21.3334C22.6666 22.0698 22.0697 22.6667 21.3333 22.6667C20.5969 22.6667 20 22.0698 20 21.3334V17.3334C20 16.9798 19.8595 16.6406 19.6094 16.3906C19.3594 16.1405 19.0202 16 18.6666 16C18.313 16 17.9739 16.1405 17.7238 16.3906C17.4738 16.6406 17.3333 16.9798 17.3333 17.3334C17.3333 18.0698 16.7363 18.6667 16 18.6667C15.2636 18.6667 14.6666 18.0698 14.6666 17.3334C14.6666 16.2725 15.0881 15.2551 15.8382 14.5049Z"/>
	</symbol>

	<symbol id="Twitter" viewBox="0 0 25 25" fill="none" xmlns="http://www.w3.org/2000/svg">
		<g clip-path="url(#clip0_2_618)">
		<g clip-path="url(#clip1_2_618)">
		<g clip-path="url(#clip2_2_618)">
		<path fill-rule="evenodd" clip-rule="evenodd" d="M12.81 1.84843C10.0155 1.84843 7.33559 2.9585 5.35962 4.93446C3.38367 6.91042 2.27359 9.59042 2.27359 12.3848C2.27359 15.1793 3.38367 17.8592 5.35962 19.8352C7.33559 21.8112 10.0155 22.9213 12.81 22.9213C15.6044 22.9213 18.2844 21.8112 20.2604 19.8352C22.2363 17.8592 23.3464 15.1793 23.3464 12.3848C23.3464 9.59042 22.2363 6.91042 20.2604 4.93446C18.2844 2.9585 15.6044 1.84843 12.81 1.84843ZM4.74727 4.3221C6.88563 2.18373 9.78587 0.982422 12.81 0.982422C15.8341 0.982422 18.7344 2.18373 20.8727 4.3221C23.0111 6.46047 24.2124 9.36075 24.2124 12.3848C24.2124 15.4089 23.0111 18.3092 20.8727 20.4475C18.7344 22.5859 15.8341 23.7872 12.81 23.7872C9.78587 23.7872 6.88563 22.5859 4.74727 20.4475C2.6089 18.3092 1.40758 15.4089 1.40758 12.3848C1.40758 9.36075 2.6089 6.46047 4.74727 4.3221Z" fill="#39393A"/>
		<path d="M6.95012 16.0455C8.00479 16.7214 9.22507 17.0941 10.4774 17.1231C11.7297 17.1521 12.9658 16.836 14.0506 16.2096C15.1354 15.5832 16.027 14.6704 16.6279 13.5713C17.2288 12.4722 17.5159 11.229 17.4577 9.97772C17.9268 9.63664 18.3332 9.21665 18.6586 8.7364C18.2197 8.92925 17.7547 9.05575 17.2787 9.11169C17.7811 8.81277 18.1568 8.34054 18.3352 7.78384C17.8615 8.0613 17.3442 8.25649 16.8053 8.36118C16.4425 7.97917 15.9642 7.72701 15.444 7.64357C14.9239 7.56018 14.3907 7.65008 13.9267 7.8995C13.4626 8.14892 13.0935 8.54395 12.8761 9.0238C12.6586 9.50371 12.605 10.0417 12.7235 10.5551C11.7694 10.507 10.8359 10.2592 9.9836 9.82751C9.13128 9.39587 8.37905 8.79008 7.77573 8.04937C7.46742 8.57762 7.37281 9.20376 7.51128 9.79954C7.64975 10.3952 8.01082 10.9155 8.52049 11.2536C8.138 11.2424 7.76373 11.1394 7.4293 10.9534C7.42348 11.513 7.61281 12.0572 7.96475 12.4923C8.31666 12.9275 8.80919 13.2265 9.35759 13.3378C9.00389 13.4354 8.63224 13.4493 8.27223 13.3782C8.42533 13.8561 8.72431 14.274 9.1271 14.5732C9.52988 14.8725 10.0163 15.0381 10.5181 15.0467C10.0188 15.4406 9.44637 15.7316 8.83401 15.9031C8.22164 16.0745 7.58133 16.1229 6.95012 16.0455Z" fill="#39393A"/>
		</g>
		</g>
		</g>
		<defs>
		<clipPath id="clip0_2_618">
		<rect width="24" height="23.31" fill="white" transform="translate(0.809998 0.72998)"/>
		</clipPath>
		<clipPath id="clip1_2_618">
		<rect width="24" height="23.31" fill="white" transform="translate(0.809998 0.72998)"/>
		</clipPath>
		<clipPath id="clip2_2_618">
		<rect width="23.9956" height="23.31" fill="white" transform="translate(0.81221 0.72998)"/>
		</clipPath>
		</defs>
	</symbol>

	<symbol id="Email" viewBox="0 0 24 24" fill="none"
		xmlns="http://www.w3.org/2000/svg">
		<path
			d="M4 4H20C21.1 4 22 4.9 22 6V18C22 19.1 21.1 20 20 20H4C2.9 20 2 19.1 2 18V6C2 4.9 2.9 4 4 4Z"
			stroke="currentColor" stroke-width="1.5" stroke-linecap="round" stroke-linejoin="round" />
		<path d="M22 6L12 13L2 6" stroke="currentColor" stroke-width="1.5" stroke-linecap="round"
			stroke-linejoin="round" />
    </symbol>

</svg>